<?xml version="1.0" encoding="utf-8"?>
<!DOCTYPE svg PUBLIC "-//W3C//DTD SVG 1.1//EN" "http://www.w3.org/Graphics/SVG/1.1/DTD/svg11.dtd">
<svg version="1.1" id="Layer_1" xmlns="http://www.w3.org/2000/svg" xmlns:xlink="http://www.w3.org/1999/xlink" x="0px" y="0px" width="446.106px" height="99.928px" viewBox="0 0 446.106 99.928" enable-background="new 0 0 446.106 99.928" xml:space="preserve">
    <style type="text/css">
    <![CDATA[ .dialobChar {
        fill: #4BB9EA;
    }
    
    .dialobCharBrand {
        fill: #4D2E75;
    }
    
    ]]>
    </style>
    <g>
        <path class="dialobChar" fill-rule="evenodd" clip-rule="evenodd" d="M88.199,29.06v44.943v6.86h-5.848
		c-0.72,0.102-1.457,0.102-2.177,0H27.338c-0.469,0.025-0.941,0.038-1.417,0.038C11.605,80.902,0,69.296,0,54.981
		C0,40.674,11.596,29.076,25.898,29.06h48.428V6.937c0-9.249,13.873-9.249,13.873,0V29.06z M74.326,42.933h-48.42
		c-6.649,0.007-12.033,5.399-12.033,12.048c0,6.654,5.394,12.048,12.048,12.048c0.262,0,0.739-0.015,0.997-0.031l47.409-0.006
		V42.933z" />
        <path class="dialobChar" d="M228.207,74.003V6.937c0-9.249,13.873-9.249,13.873,0v67.067C242.08,83.252,228.207,83.252,228.207,74.003z
		" />
        <path class="dialobChar" d="M371.78,29.06h48.428c14.303,0.016,25.898,11.614,25.898,25.921c0,14.315-11.605,25.921-25.921,25.921
		c-0.476,0-0.948-0.013-1.417-0.038h-52.836c-0.721,0.102-1.457,0.102-2.178,0h-5.848v-6.86V29.06V6.937
		c0-9.249,13.873-9.249,13.873,0V29.06z M371.78,42.933v24.059l47.409,0.006c0.257,0.017,0.734,0.031,0.996,0.031
		c6.654,0,12.048-5.394,12.048-12.048c0-6.649-5.384-12.041-12.033-12.048H371.78z" />
        <path class="dialobChar" d="M100.648,74.003V35.384c0-9.248,13.873-9.248,13.873,0v38.619
		C114.521,83.252,100.648,83.252,100.648,74.003z" />
        <path class="dialobChar" d="M199.704,42.933h-48.421c-6.648,0.007-12.033,5.399-12.033,12.048c0,6.654,5.395,12.048,12.049,12.048
		c0.261,0,0.739-0.015,0.996-0.031l47.409-0.006V42.933z M213.576,29.06v51.804h-60.86c-0.47,0.025-0.941,0.038-1.417,0.038
		c-14.316,0-25.921-11.605-25.921-25.921c0-14.307,11.596-25.905,25.898-25.921H213.576z" />
        <path class="dialobCharBrand" d="M285.276,67.62h30.771l4.44,0.005c0.257,0.017,0.734,0.031,0.996,0.031c6.654,0,12.048-5.394,12.048-12.048
		c0-6.649-5.384-12.042-12.033-12.048h-5.451h-30.771h-5.451c-6.649,0.007-12.033,5.399-12.033,12.048
		c0,6.654,5.394,12.048,12.048,12.048c0.262,0,0.739-0.015,0.996-0.031L285.276,67.62z M285.276,29.687h30.771h5.459
		c14.303,0.015,25.898,11.614,25.898,25.921c0,14.315-11.605,25.921-25.921,25.921c-0.476,0-0.948-0.014-1.417-0.038h-4.02h-3.989
		v18.438L293.62,81.491h-8.344h-4.02c-0.469,0.024-0.941,0.038-1.417,0.038c-14.315,0-25.921-11.605-25.921-25.921
		c0-14.307,11.596-25.906,25.898-25.921H285.276z" />
    </g>
</svg>
